<?xml version="1.0" encoding="UTF-8"?>
<svg width="13px" height="13px" viewBox="0 0 13 13" version="1.1" xmlns="http://www.w3.org/2000/svg" xmlns:xlink="http://www.w3.org/1999/xlink">
    <!-- Generator: Sketch 45 (43475) - http://www.bohemiancoding.com/sketch -->
    <title>np_add_1135514_000000</title>
    <desc>Created with Sketch.</desc>
    <defs></defs>
    <g id="Page-1" stroke="none" stroke-width="1" fill="none" fill-rule="evenodd">
        <g id="Tablet" transform="translate(-674.000000, -39.000000)" fill-rule="nonzero" fill="#000000">
            <g id="Group-3" transform="translate(73.000000, 23.000000)">
                <g id="np_add_1135514_000000" transform="translate(601.000000, 16.000000)">
                    <path d="M12.1386123,6.06930615 C12.1386123,6.36102867 11.9025611,6.5970719 11.6108465,6.5970719 C11.0233506,6.5970719 10.5827286,6.5970719 10.2889806,6.5970719 C9.99523259,6.5970719 8.76459636,6.5970719 6.5970719,6.5970719 L6.5970719,11.6108465 C6.5970719,11.9025691 6.36102075,12.1386123 6.06930615,12.1386123 C5.77759154,12.1386123 5.5415404,11.9025611 5.5415404,11.6108465 L5.5415404,6.5970719 L0.527765752,6.5970719 C0.236043233,6.5970719 0,6.36102075 0,6.06930615 C0,5.77759154 0.236051149,5.5415404 0.527765752,5.5415404 L5.5415404,5.5415404 L5.5415404,0.527765752 C5.5415404,0.236043233 5.77759154,0 6.06930615,0 C6.36102075,0 6.5970719,0.236051149 6.5970719,0.527765752 L6.5970719,5.5415404 L11.6108465,5.5415404 C11.9025691,5.5415404 12.1386123,5.77759154 12.1386123,6.06930615 Z" id="Shape"></path>
                </g>
            </g>
        </g>
    </g>
</svg>