<?xml version="1.0" encoding="UTF-8"?>
<svg width="10px" height="10px" viewBox="0 0 10 10" version="1.1" xmlns="http://www.w3.org/2000/svg" xmlns:xlink="http://www.w3.org/1999/xlink">
    <!-- Generator: Sketch 46.2 (44496) - http://www.bohemiancoding.com/sketch -->
    <title>np_wrench_888740_FFFFFF</title>
    <desc>Created with Sketch.</desc>
    <defs></defs>
    <g id="Page-1" stroke="none" stroke-width="1" fill="none" fill-rule="evenodd">
        <g id="iPhone-7" transform="translate(-341.000000, -195.000000)" fill-rule="nonzero" fill="#FFFFFF">
            <g id="np_wrench_888740_FFFFFF" transform="translate(341.000000, 195.000000)">
                <path d="M9.94144484,1.37653198 L8.78294501,2.53709584 L7.68667678,2.3176925 L7.46766364,1.21947111 L8.62616347,0.0589072407 C7.99963858,-0.0981536278 7.3108821,0.0589072407 6.81002295,0.529487503 C6.24633094,1.09418382 6.12126647,1.97239953 6.43422828,2.66298548 L2.67628151,6.42762758 C1.98752503,6.0823346 1.11026994,6.20822424 0.546577922,6.80409179 C0.0457187772,7.30584329 -0.111062762,7.99642923 0.0768345764,8.62346802 L1.23533441,7.46290416 L2.33160264,7.6823075 L2.55061577,8.78052889 L1.39211594,9.94109276 C2.01864083,10.0981536 2.70739731,9.94109276 3.20825646,9.4705125 C3.77194847,8.90581618 3.89701294,8.02760047 3.58405113,7.33701452 L7.3419979,3.57237242 C8.03075438,3.9176654 8.90800947,3.79177576 9.47170149,3.19590821 C9.94144484,2.69415671 10.0976401,2.00357077 9.94144484,1.37653198 Z" id="Shape"></path>
            </g>
        </g>
    </g>
</svg>