<?xml version="1.0" encoding="UTF-8"?>
<svg width="17px" height="18px" viewBox="0 0 17 18" version="1.1" xmlns="http://www.w3.org/2000/svg" xmlns:xlink="http://www.w3.org/1999/xlink">
    <!-- Generator: Sketch 44.1 (41455) - http://www.bohemiancoding.com/sketch -->
    <title>np_remove_1014230_000000</title>
    <desc>Created with Sketch.</desc>
    <defs></defs>
    <g id="Page-1" stroke="none" stroke-width="1" fill="none" fill-rule="evenodd">
        <g id="Hover" transform="translate(-670.000000, -315.000000)" fill-rule="nonzero" fill="#FFFFFF">
            <g id="component-song" transform="translate(483.000000, 315.334582)">
                <g id="np_remove_1014230_000000" transform="translate(187.000000, 0.000000)">
                    <path d="M8.48137419,0.108735567 C3.87120364,0.108735567 0.108735567,3.87120364 0.108735567,8.48137419 C0.108735567,13.0915447 3.87120364,16.8540128 8.48137419,16.8540128 C13.0915447,16.8540128 16.8540128,13.0915447 16.8540128,8.48137419 C16.8540128,3.87120364 13.0915447,0.108735567 8.48137419,0.108735567 Z M11.3084989,9.13378759 L5.65424946,9.13378759 C5.35013783,9.13378759 5.11057163,8.89422139 5.11057163,8.59010975 C5.11057163,8.28599812 5.35013783,8.04643192 5.65424946,8.04643192 L11.3084989,8.04643192 C11.6126105,8.04643192 11.8521767,8.28599812 11.8521767,8.59010975 C11.8521767,8.89422139 11.6126105,9.13378759 11.3084989,9.13378759 Z" id="Shape"></path>
                </g>
            </g>
        </g>
    </g>
</svg>