<?xml version="1.0" encoding="UTF-8"?>
<svg width="17px" height="16px" viewBox="0 0 17 16" version="1.1" xmlns="http://www.w3.org/2000/svg" xmlns:xlink="http://www.w3.org/1999/xlink">
    <!-- Generator: Sketch 46.2 (44496) - http://www.bohemiancoding.com/sketch -->
    <title>listelectureicon</title>
    <desc>Created with Sketch.</desc>
    <defs></defs>
    <g id="Page-1" stroke="none" stroke-width="1" fill="none" fill-rule="evenodd">
        <g id="Ajouter" transform="translate(-308.000000, -811.000000)" fill="#FF5722">
            <g id="listelectureicon" transform="translate(308.000000, 811.000000)">
                <rect id="Rectangle-7" x="6" y="2" width="11" height="1.5" rx="0.75"></rect>
                <rect id="Rectangle-7" x="0" y="14" width="17" height="1.5" rx="0.75"></rect>
                <rect id="Rectangle-7" x="0" y="8" width="17" height="1.5" rx="0.75"></rect>
                <path d="M3.39307131,2.96652254 L0.462691542,4.65889397 C0.367502011,4.71371829 0.249421587,4.71371829 0.154230514,4.65889397 C0.0590409831,4.60406965 0,4.50165596 0,4.39199806 L0,1.00802635 C0,0.897776212 0.0590409831,0.795959395 0.154230514,0.741130448 C0.249420045,0.686306127 0.367500469,0.686306127 0.462691542,0.741130448 L3.39307131,2.43350188 C3.48826084,2.4883262 3.54730182,2.59013839 3.54730182,2.70039778 C3.54730182,2.81004642 3.48886234,2.91186324 3.39307131,2.96669219 L3.39307131,2.96652254 Z" id="Path"></path>
            </g>
        </g>
    </g>
</svg>