<?xml version="1.0" encoding="UTF-8"?>
<svg width="46px" height="46px" viewBox="0 0 46 46" version="1.1" xmlns="http://www.w3.org/2000/svg" xmlns:xlink="http://www.w3.org/1999/xlink">
    <!-- Generator: Sketch 44.1 (41455) - http://www.bohemiancoding.com/sketch -->
    <title>np_play_669096_000000</title>
    <desc>Created with Sketch.</desc>
    <defs></defs>
    <g id="Page-1" stroke="none" stroke-width="1" fill="none" fill-rule="evenodd">
        <g id="Hover" transform="translate(-559.000000, -374.000000)" fill-rule="nonzero" fill="#FFFFFF">
            <g id="component-song" transform="translate(483.000000, 315.334582)">
                <g id="Bitmap" transform="translate(2.000000, 8.000000)">
                    <g id="np_play_669096_000000" transform="translate(74.000000, 51.000000)">
                        <path d="M22.9511605,0.235111111 C10.4062222,0.235111111 0.235111111,10.4062222 0.235111111,22.9511605 C0.235111111,35.4983704 10.4062222,45.6672099 22.9511605,45.6672099 C35.4983704,45.6672099 45.6672099,35.4983704 45.6672099,22.9511605 C45.6672099,10.4062222 35.4960988,0.235111111 22.9511605,0.235111111 Z M30.710963,23.9336296 L19.9208395,30.1652099 C19.5703365,30.3670817 19.1355457,30.3670817 18.785037,30.1652099 C18.4345341,29.963338 18.2171358,29.5862346 18.2171358,29.1824568 L18.2171358,16.7221358 C18.2171358,16.3161773 18.4345341,15.9412716 18.785037,15.7393827 C19.13554,15.5375109 19.5703309,15.5375109 19.9208395,15.7393827 L30.710963,21.970963 C31.0614659,22.1728348 31.2788642,22.5477235 31.2788642,22.953716 C31.2788642,23.3574598 31.0636807,23.7323654 30.710963,23.9342543 L30.710963,23.9336296 Z" id="Shape"></path>
                    </g>
                </g>
            </g>
        </g>
    </g>
</svg>