<svg fill="#000000" xmlns="http://www.w3.org/2000/svg" xmlns:xlink="http://www.w3.org/1999/xlink" viewBox="0 0 40 40" version="1.1" x="0px" y="0px"><title>settings-icon</title><desc>Created with Sketch.</desc><g stroke="none" stroke-width="1" fill="none" fill-rule="evenodd"><g fill="#000000"><g transform="translate(7.000000, 6.000000)"><path d="M23.6677436,14.7498934 C23.3290591,16.1844265 22.0400658,17.25 20.5046387,17.25 C18.9692115,17.25 17.6802182,16.1844265 17.3415337,14.7498934 L0.748720448,14.7498934 C0.335213563,14.7498934 3.74114355e-14,14.4146798 -5.68434189e-14,14.0011729 C-1.50917351e-13,13.5876541 0.335201641,13.2524195 0.748720445,13.2523788 L0.748720445,13.2523788 L17.3413829,13.2507456 C17.6798354,11.81589 18.9689836,10.75 20.5046387,10.75 C22.0400716,10.75 23.3290689,11.8155816 23.6677475,13.2501229 L25.25,13.2499672 C25.2500246,13.2499672 25.2500492,13.2499672 25.2500738,13.2499672 C25.6642466,13.2499672 26,13.5857206 26,13.9998934 C26,14.4141069 25.6642136,14.7498934 25.25,14.7498934 L25.25,14.7498934 L23.6677436,14.7498934 Z M8.66494356,24.7498934 C8.3264585,26.1847038 7.0373321,27.2505493 5.50170898,27.2505493 C3.96608587,27.2505493 2.67695947,26.1847038 2.33847441,24.7498934 L0.748720448,24.7498934 C0.335213563,24.7498934 3.74114355e-14,24.4146798 -5.68434189e-14,24.0011729 L-5.68434189e-14,24.0011729 C-1.50917351e-13,23.5876541 0.335201641,23.2524195 0.748720445,23.2523788 L0.748720445,23.2523788 L2.33823465,23.2522223 C2.67635032,21.8168986 3.96572305,20.7505493 5.50170898,20.7505493 C7.03747278,20.7505493 8.3266947,21.8165902 8.66503656,23.2515996 L25.25,23.2499672 C25.2500246,23.2499672 25.2500492,23.2499672 25.2500738,23.2499672 C25.6642466,23.2499672 26,23.5857206 26,23.9998934 C26,24.4141069 25.6642136,24.7498934 25.25,24.7498934 L8.66494356,24.7498934 Z M8.66799532,4.74989338 C8.32951025,6.18470377 7.04038386,7.25054932 5.50476074,7.25054932 C3.96913763,7.25054932 2.68001123,6.18470377 2.34152617,4.74989338 L0.748720448,4.74989338 C0.335213563,4.74989338 3.74114355e-14,4.41467982 -5.68434189e-14,4.00117293 C-1.50917351e-13,3.58765412 0.335201641,3.25241949 0.748720445,3.25237879 L0.748720445,3.25237879 L2.34128647,3.25222204 C2.67940225,1.81689843 3.96877491,0.750549316 5.50476074,0.750549316 C7.04052443,0.750549316 8.32974627,1.81659001 8.66808825,3.25159931 L25.25,3.2499672 C25.2500246,3.2499672 25.2500492,3.24996719 25.2500738,3.24996719 C25.6642466,3.24996719 26,3.58572058 26,3.99989338 C26,4.41410694 25.6642136,4.74989338 25.25,4.74989338 L25.25,4.74989338 L8.66799532,4.74989338 Z M5.50476074,5.9989624 C6.60728836,5.9989624 7.50317383,5.105447 7.50317383,4.00054932 C7.50317383,2.89565163 6.60728836,2.00213623 5.50476074,2.00213623 C4.40223313,2.00213623 3.50634766,2.89565163 3.50634766,4.00054932 C3.50634766,5.105447 4.40223313,5.9989624 5.50476074,5.9989624 Z M5.50170898,25.9989624 C6.6042366,25.9989624 7.50012207,25.105447 7.50012207,24.0005493 C7.50012207,22.8956516 6.6042366,22.0021362 5.50170898,22.0021362 C4.39918137,22.0021362 3.5032959,22.8956516 3.5032959,24.0005493 C3.5032959,25.105447 4.39918137,25.9989624 5.50170898,25.9989624 Z M20.5046387,15.9984131 C21.6071663,15.9984131 22.5030518,15.1048977 22.5030518,14 C22.5030518,12.8951023 21.6071663,12.0015869 20.5046387,12.0015869 C19.4021111,12.0015869 18.5062256,12.8951023 18.5062256,14 C18.5062256,15.1048977 19.4021111,15.9984131 20.5046387,15.9984131 Z"/></g></g></g></svg>