<?xml version="1.0" encoding="UTF-8"?>
<svg width="14px" height="14px" viewBox="0 0 14 14" version="1.1" xmlns="http://www.w3.org/2000/svg" xmlns:xlink="http://www.w3.org/1999/xlink">
    <!-- Generator: Sketch 46.2 (44496) - http://www.bohemiancoding.com/sketch -->
    <title>reglages</title>
    <desc>Created with Sketch.</desc>
    <defs></defs>
    <g id="Page-1" stroke="none" stroke-width="1" fill="none" fill-rule="evenodd">
        <g id="Ajouter" transform="translate(-1114.000000, -23.000000)" fill-rule="nonzero" fill="#FFFFFF">
            <g id="reglages" transform="translate(1121.000000, 30.000000) rotate(-270.000000) translate(-1121.000000, -30.000000) translate(1114.000000, 23.000000)">
                <path d="M12.7441696,7.3958799 C12.5618011,8.15374644 11.8677277,8.71669093 11.0409593,8.71669093 C10.2141908,8.71669093 9.52011749,8.15374644 9.33774892,7.3958799 L0.403157164,7.3958799 C0.180499611,7.3958799 5.07526139e-14,7.21878592 0,7.00032944 C-5.06551942e-14,6.78186668 0.180493191,6.60476161 0.403157163,6.60474011 L0.403157163,6.60474011 L9.33766772,6.60387729 C9.51991137,5.84584036 10.2140681,5.28272867 11.0409593,5.28272867 C11.8677309,5.28272867 12.5618063,5.84567744 12.7441717,6.60354831 L13.5961538,6.60346606 C13.5961671,6.60346606 13.5961803,6.60346606 13.5961936,6.60346606 C13.8192097,6.60346606 14,6.78084521 14,6.99965348 C14,7.21848326 13.8191919,7.3958799 13.5961538,7.3958799 L13.5961538,7.3958799 L12.7441696,7.3958799 Z M4.66573884,12.6788988 C4.48347765,13.4369118 3.78933267,14 2.96245868,14 C2.1355847,14 1.44143971,13.4369118 1.25917853,12.6788988 L0.403157164,12.6788988 C0.180499611,12.6788988 5.07526139e-14,12.5018048 0,12.2833483 L0,12.2833483 C-5.06551942e-14,12.0648856 0.180493191,11.8877805 0.403157163,11.887759 L0.403157163,11.887759 L1.25904943,11.8876763 C1.44111171,11.1293921 2.13538933,10.5660377 2.96245868,10.5660377 C3.78940842,10.5660377 4.48360484,11.1292292 4.66578892,11.8873473 L13.5961538,11.8864849 C13.5961671,11.8864849 13.5961803,11.8864849 13.5961936,11.8864849 C13.8192097,11.8864849 14,12.0638641 14,12.2826724 C14,12.5015021 13.8191919,12.6788988 13.5961538,12.6788988 L4.66573884,12.6788988 Z M4.6673821,2.11286102 C4.4851209,2.87087405 3.79097592,3.43396227 2.96410194,3.43396227 C2.13722795,3.43396227 1.44308297,2.87087405 1.26082178,2.11286102 L0.403157164,2.11286102 C0.180499611,2.11286102 5.07526139e-14,1.93576706 0,1.71731059 C-5.06551942e-14,1.49884782 0.180493191,1.32174273 0.403157163,1.32172123 L0.403157163,1.32172123 L1.26069271,1.32163842 C1.44275506,0.563354249 2.13703264,0 2.96410194,0 C3.79105162,0 4.48524799,0.56319131 4.66743213,1.32130943 L13.5961538,1.32044718 C13.5961671,1.32044718 13.5961803,1.32044718 13.5961936,1.32044718 C13.8192097,1.32044718 14,1.49782633 14,1.7166346 C14,1.93546441 13.8191919,2.11286102 13.5961538,2.11286102 L13.5961538,2.11286102 L4.6673821,2.11286102 Z M2.96410194,2.77274654 C3.55777066,2.77274654 4.04017052,2.30070066 4.04017052,1.71698114 C4.04017052,1.1332616 3.55777066,0.661215729 2.96410194,0.661215729 C2.37043322,0.661215729 1.88803336,1.1332616 1.88803336,1.71698114 C1.88803336,2.30070066 2.37043322,2.77274654 2.96410194,2.77274654 Z M2.96245868,13.3387843 C3.5561274,13.3387843 4.03852727,12.8667384 4.03852727,12.2830189 C4.03852727,11.6992993 3.5561274,11.2272535 2.96245868,11.2272535 C2.36878997,11.2272535 1.8863901,11.6992993 1.8863901,12.2830189 C1.8863901,12.8667384 2.36878997,13.3387843 2.96245868,13.3387843 Z M11.0409593,8.05547521 C11.634628,8.05547521 12.1170279,7.58342934 12.1170279,6.9997098 C12.1170279,6.41599026 11.634628,5.94394439 11.0409593,5.94394439 C10.4472906,5.94394439 9.96489071,6.41599026 9.96489071,6.9997098 C9.96489071,7.58342934 10.4472906,8.05547521 11.0409593,8.05547521 Z" id="Shape"></path>
            </g>
        </g>
    </g>
</svg>