<?xml version="1.0" encoding="UTF-8"?>
<svg width="14px" height="14px" viewBox="0 0 14 14" version="1.1" xmlns="http://www.w3.org/2000/svg" xmlns:xlink="http://www.w3.org/1999/xlink">
    <!-- Generator: Sketch 45 (43475) - http://www.bohemiancoding.com/sketch -->
    <title>np_search_929352_000000</title>
    <desc>Created with Sketch.</desc>
    <defs></defs>
    <g id="Page-1" stroke="none" stroke-width="1" fill="none" fill-rule="evenodd">
        <g id="Tablet" transform="translate(-354.000000, -38.000000)" fill-rule="nonzero" fill="#000000">
            <g id="Group-3" transform="translate(73.000000, 23.000000)">
                <g id="np_search_929352_000000" transform="translate(281.000000, 15.000000)">
                    <path d="M13.3125248,12.876503 L9.62318061,9.18807538 C11.4328885,7.0346825 11.3416057,3.82704728 9.32513696,1.8105327 C7.19410653,-0.320497739 3.73498552,-0.320497739 1.60390926,1.8105327 C-0.527121174,3.94156313 -0.527121174,7.40068414 1.60390926,9.5317604 C2.65824326,10.5860944 4.07867054,11.1356238 5.47563559,11.1356238 C6.73581401,11.1356238 7.97262184,10.7006561 9.0036769,9.85216649 L12.6930211,13.5415106 L13.3125248,12.876503 Z M2.24563793,8.89021502 C0.481571453,7.12614854 0.481571453,4.23878194 2.24563793,2.47476128 C3.13885239,1.58154682 4.28446913,1.14566256 5.4533648,1.14566256 C6.62226048,1.14566256 7.79019383,1.58063033 8.66109167,2.47476128 C10.4251582,4.23882776 10.4251582,7.12619437 8.66109167,8.89021502 C6.89702519,10.6542357 4.00965859,10.6542815 2.24563793,8.89021502 Z" id="Shape"></path>
                </g>
            </g>
        </g>
    </g>
</svg>