<?xml version="1.0" encoding="UTF-8"?>
<svg width="17px" height="16px" viewBox="0 0 17 16" version="1.1" xmlns="http://www.w3.org/2000/svg" xmlns:xlink="http://www.w3.org/1999/xlink">
    <!-- Generator: Sketch 46.2 (44496) - http://www.bohemiancoding.com/sketch -->
    <title>settings</title>
    <desc>Created with Sketch.</desc>
    <defs></defs>
    <g id="Page-1" stroke="none" stroke-width="1" fill="none" fill-rule="evenodd">
        <g id="Ajouter" transform="translate(-1117.000000, -22.000000)" fill-rule="nonzero" fill="#FFFFFF">
            <g id="settings" transform="translate(1117.000000, 22.000000)">
                <path d="M8.5,0 C8.225,0 8,0.232258065 8,0.516129032 L8,3.1483871 C6.85,3.38064516 6,4.43870968 6,5.67741935 C6,6.91612903 6.85,7.97419355 8,8.20645161 L8,15.483871 C8,15.7677419 8.225,16 8.5,16 C8.775,16 9,15.7677419 9,15.483871 L9,8.20645161 C10.15,7.97419355 11,6.91612903 11,5.67741935 C11,4.43870968 10.15,3.38064516 9,3.1483871 L9,0.516129032 C9,0.232258065 8.775,0 8.5,0 Z M10,5.67741935 C10,6.52903226 9.325,7.22580645 8.5,7.22580645 C7.675,7.22580645 7,6.52903226 7,5.67741935 C7,4.82580645 7.675,4.12903226 8.5,4.12903226 C9.325,4.12903226 10,4.82580645 10,5.67741935 Z" id="Shape"></path>
                <path d="M15,7.79354839 L15,0.516129032 C15,0.232258065 14.775,0 14.5,0 C14.225,0 14,0.232258065 14,0.516129032 L14,7.79354839 C12.85,8.02580645 12,9.08387097 12,10.3225806 C12,11.5612903 12.85,12.6193548 14,12.8516129 L14,15.483871 C14,15.7677419 14.225,16 14.5,16 C14.775,16 15,15.7677419 15,15.483871 L15,12.8516129 C16.15,12.6193548 17,11.5612903 17,10.3225806 C17,9.08387097 16.15,8.02580645 15,7.79354839 Z M14.5,11.8709677 C13.675,11.8709677 13,11.1741935 13,10.3225806 C13,9.47096774 13.675,8.77419355 14.5,8.77419355 C15.325,8.77419355 16,9.47096774 16,10.3225806 C16,11.1741935 15.325,11.8709677 14.5,11.8709677 Z" id="Shape"></path>
                <path d="M2,12.8516129 L2,15.483871 C2,15.7677419 2.225,16 2.5,16 C2.775,16 3,15.7677419 3,15.483871 L3,12.8516129 C4.15,12.6193548 5,11.5612903 5,10.3225806 C5,9.08387097 4.15,8.02580645 3,7.79354839 L3,0.516129032 C3,0.232258065 2.775,0 2.5,0 C2.225,0 2,0.232258065 2,0.516129032 L2,7.79354839 C0.85,8.02580645 0,9.08387097 0,10.3225806 C0,11.5612903 0.85,12.6193548 2,12.8516129 Z M2.5,8.77419355 C3.325,8.77419355 4,9.47096774 4,10.3225806 C4,11.1741935 3.325,11.8709677 2.5,11.8709677 C1.675,11.8709677 1,11.1741935 1,10.3225806 C1,9.47096774 1.675,8.77419355 2.5,8.77419355 Z" id="Shape"></path>
            </g>
        </g>
    </g>
</svg>