<?xml version="1.0" encoding="UTF-8"?>
<svg width="7px" height="4px" viewBox="0 0 7 4" version="1.1" xmlns="http://www.w3.org/2000/svg" xmlns:xlink="http://www.w3.org/1999/xlink">
    <!-- Generator: Sketch 46.2 (44496) - http://www.bohemiancoding.com/sketch -->
    <title>small-arrow-down</title>
    <desc>Created with Sketch.</desc>
    <defs></defs>
    <g id="Page-1" stroke="none" stroke-width="1" fill="none" fill-rule="evenodd">
        <g id="Ajouter" transform="translate(-1083.000000, -30.000000)" fill-rule="nonzero" fill="#FFFFFF">
            <g id="Group-3" transform="translate(153.000000, 22.000000)">
                <g id="small-arrow-down" transform="translate(933.500000, 10.000000) rotate(180.000000) translate(-933.500000, -10.000000) translate(930.000000, 8.000000)">
                    <path d="M6.5625,4 C6.73925,4 6.899375,3.89155857 6.96675,3.72578539 C6.9899375,3.67112025 7,3.61289964 7,3.5555679 C7,3.44001556 6.955375,3.32624094 6.8718125,3.24135441 L3.8093125,0.130329713 C3.63825,-0.0434432377 3.36175,-0.0434432377 3.1906875,0.130329713 L0.1281875,3.24135441 C0.044625,3.32624094 0,3.44001556 0,3.5555679 C0,3.61289964 0.0109375,3.67112025 0.03325,3.72578539 C0.100625,3.89155857 0.26075,4 0.4375,4 L6.5625,4 Z" id="Shape"></path>
                </g>
            </g>
        </g>
    </g>
</svg>