<?xml version="1.0" encoding="UTF-8"?>
<svg width="17px" height="17px" viewBox="0 0 17 17" version="1.1" xmlns="http://www.w3.org/2000/svg" xmlns:xlink="http://www.w3.org/1999/xlink">
    <!-- Generator: Sketch 46.2 (44496) - http://www.bohemiancoding.com/sketch -->
    <title>np_add_1135514_000000</title>
    <desc>Created with Sketch.</desc>
    <defs></defs>
    <g id="Page-1" stroke="none" stroke-width="1" fill="none" fill-rule="evenodd">
        <g id="iPhone-7" transform="translate(-217.000000, -622.000000)" fill-rule="nonzero" fill="#FFFFFF">
            <g id="np_add_1135514_000000" transform="translate(217.000000, 622.000000)">
                <path d="M17,8.5 C17,8.90855435 16.6694128,9.23913043 16.2608696,9.23913043 C15.4380876,9.23913043 14.8210011,9.23913043 14.4096101,9.23913043 C13.9982191,9.23913043 12.2747259,9.23913043 9.23913043,9.23913043 L9.23913043,16.2608696 C9.23913043,16.6694239 8.90854326,17 8.5,17 C8.09145674,17 7.76086957,16.6694128 7.76086957,16.2608696 L7.76086957,9.23913043 L0.739130435,9.23913043 C0.330576087,9.23913043 0,8.90854326 0,8.5 C0,8.09145674 0.330587174,7.76086957 0.739130435,7.76086957 L7.76086957,7.76086957 L7.76086957,0.739130435 C7.76086957,0.330576087 8.09145674,0 8.5,0 C8.90854326,0 9.23913043,0.330587174 9.23913043,0.739130435 L9.23913043,7.76086957 L16.2608696,7.76086957 C16.6694239,7.76086957 17,8.09145674 17,8.5 Z" id="Shape"></path>
            </g>
        </g>
    </g>
</svg>