<?xml version="1.0" encoding="UTF-8"?>
<svg width="17px" height="17px" viewBox="0 0 17 17" version="1.1" xmlns="http://www.w3.org/2000/svg" xmlns:xlink="http://www.w3.org/1999/xlink">
    <!-- Generator: Sketch 46.2 (44496) - http://www.bohemiancoding.com/sketch -->
    <title>np_search_929352_000000</title>
    <desc>Created with Sketch.</desc>
    <defs></defs>
    <g id="Page-1" stroke="none" stroke-width="1" fill="none" fill-rule="evenodd">
        <g id="iPhone-7" transform="translate(-129.000000, -622.000000)" fill-rule="nonzero" fill="#FFFFFF">
            <g id="np_search_929352_000000" transform="translate(129.000000, 622.000000)">
                <path d="M17,16.1518556 L12.286738,11.44767 C14.598701,8.70125312 14.4820843,4.61026558 11.9059772,2.038422 C9.18351372,-0.679474001 4.76436962,-0.679474001 2.0418476,2.038422 C-0.680615868,4.75631801 -0.680615868,9.16804813 2.0418476,11.8860026 C3.38879495,13.2306902 5.20343886,13.9315548 6.98810897,13.9315548 C8.59802953,13.9315548 10.1780934,13.376801 11.4953011,12.2946455 L16.2085631,17 L17,16.1518556 Z M2.86167769,11.0677817 C0.608023086,8.81790804 0.608023086,5.13538805 2.86167769,2.88557284 C4.00278938,1.74637559 5.46635352,1.19045294 6.95965728,1.19045294 C8.45296105,1.19045294 9.94503542,1.7452067 11.0576369,2.88557284 C13.3112915,5.1354465 13.3112915,8.81796648 11.0576369,11.0677817 C8.80398227,13.3175969 5.11527376,13.3176554 2.86167769,11.0677817 Z" id="Shape"></path>
            </g>
        </g>
    </g>
</svg>